<svg xmlns="http://www.w3.org/2000/svg" width="296" height="47" viewBox="0 0 350 47"><defs><style>.a,.b{fill:#fff;font-family:Poppins-SemiBold, Poppins;font-weight:600;letter-spacing:0.1em;}.a{font-size:24px;}.b{font-size:9px;}.c{fill:#1abe85;}</style></defs><g transform="translate(-81 -40)"><text class="a" transform="translate(150 65)"><tspan x="0" y="0">MYSURU ZOO</tspan></text><text class="b" transform="translate(150 84)"><tspan x="0" y="0">SRI CHAMARAJENDRA ZOOLOGICAL GARDENS</tspan></text><g transform="translate(-170.609 -544.204)"><path class="c" d="M274.973,584.2h1.46a2.465,2.465,0,0,1,1.158,1.414,13.073,13.073,0,0,1,.465,1.416,36.182,36.182,0,0,1,.96,7.681,42.054,42.054,0,0,1-.113,4.991,26.543,26.543,0,0,1-.87,5.253,7.923,7.923,0,0,1-2.074,3.788,2.986,2.986,0,0,1-2.487.832,6.226,6.226,0,0,1-4.646-3.052c-.059-.095-.086-.266-.211-.247-.141.021-.126.2-.149.315a3.748,3.748,0,0,0,1.112,3.514,6.243,6.243,0,0,0,3.73,1.745,4.136,4.136,0,0,0,3.883-1.541,11.008,11.008,0,0,0,2.132-4.47,35.1,35.1,0,0,0,.993-6.039c.144-1.612.214-3.226.254-4.841.041-1.656.01-3.313.008-4.97a2.445,2.445,0,0,0-.033-.518c-.06-.276.063-.351.309-.362a6.991,6.991,0,0,1,1.685.184A38.112,38.112,0,0,1,288.434,591a31.347,31.347,0,0,1,7.3,3.585,26.744,26.744,0,0,1,3.664,3.12c.548.56,1.1,1.118,1.605,1.724a37.186,37.186,0,0,1,2.338,3.057,20.762,20.762,0,0,1,2.1,3.9,11.09,11.09,0,0,1,.844,3.309.6.6,0,0,0,.3.508q1.35.883,2.694,1.774c.675.448,1.345.9,2.018,1.354.127.086.275.167.13.351a.811.811,0,0,1-1.048.2q-1.006-.582-2.014-1.16c-.6-.345-1.207-.685-1.809-1.031-.18-.1-.264-.09-.273.147a3.943,3.943,0,0,1-.1.647c-.441,2.081-1.016,4.128-1.6,6.174q-.89,3.137-1.855,6.25c-.538,1.746-1.086,3.488-1.621,5.235a.373.373,0,0,1-.374.314c-1.06.126-2.126.055-3.188.1-1.153.052-2.311.1-3.468.095-.739,0-.776-.062-.408-.7,1.093-1.893,2.167-3.8,3.147-5.751a5.886,5.886,0,0,0,.806-2.448,6.76,6.76,0,0,0-1.245-3.935,14.416,14.416,0,0,0-2.948-3.154,19.225,19.225,0,0,0-2.861-1.956,19.016,19.016,0,0,0-6.857-2.509,5.792,5.792,0,0,0-3.454.627,9.417,9.417,0,0,0-2.728,2.278,17.579,17.579,0,0,0-2.354,3.5,48.459,48.459,0,0,0-3,7.087c-.647,1.868-1.25,3.752-1.837,5.64a2.6,2.6,0,0,1-3.623,1.593,14.637,14.637,0,0,1-4.075-2.839,22.7,22.7,0,0,1-2.529-2.983,33.9,33.9,0,0,1-3.17-5.608c-.573-1.238-1.066-2.51-1.516-3.8-.519-1.485-.962-2.991-1.349-4.515-.338-1.334-.577-2.688-.873-4.03-.385-1.748-.818-3.485-1.15-5.246-.186-.988-.32-1.982-.445-2.978v-3.2c.015-.079.035-.158.046-.238a6.265,6.265,0,0,1,1.993-3.751,8.544,8.544,0,0,1,3.784-1.947c1.765-.48,3.591-.625,5.381-.969a12.01,12.01,0,0,0,2.447-.618c1.684-.713,3.284-1.606,4.944-2.372A18.107,18.107,0,0,1,274.973,584.2Zm-18.044,16.867a1.3,1.3,0,1,0,.02-2.592,1.3,1.3,0,1,0-.02,2.592Z"/><path class="c" d="M337.048,697.993c-5.464-.142-11.185-.038-16.906-.069-.489,0-.5-.016-.385-.49q.811-3.356,1.927-6.623a42.811,42.811,0,0,1,3.745-8.107,11.789,11.789,0,0,1,2.169-2.738,5.2,5.2,0,0,1,4.148-1.479,10.686,10.686,0,0,1,2.3.656,29.721,29.721,0,0,1,3.8,1.6,17.867,17.867,0,0,1,3.655,2.372,8.4,8.4,0,0,1,2.01,2.485,6.544,6.544,0,0,1,.524,4.518,11.449,11.449,0,0,1-1.522,3.626,28.311,28.311,0,0,1-3.14,4.088.522.522,0,0,1-.434.166C338.393,697.991,337.849,697.993,337.048,697.993Zm-4.465-12.181a4.425,4.425,0,0,1-.16,1.312c-.134.587-.369,1.142-.542,1.716a.583.583,0,0,0,.412.62c.226.057.257-.149.317-.287a6.689,6.689,0,0,0,.684-3.452,2.675,2.675,0,0,0-1.961-2.357.277.277,0,0,0-.343.089.315.315,0,0,0-.008.389.913.913,0,0,0,.3.28,4.5,4.5,0,0,0,.711.359.867.867,0,0,1,.586.855C332.588,685.475,332.583,685.614,332.583,685.813Zm-3.739,1.032a1.153,1.153,0,0,0-1.139-1.082,1.118,1.118,0,0,0-1.166,1.07,1.185,1.185,0,0,0,1.159,1.147A1.232,1.232,0,0,0,328.844,686.845Z" transform="translate(-48.338 -66.914)"/></g></g></svg>
